<svg width="80" height="80" viewBox="0 0 80 80" fill="none" xmlns="http://www.w3.org/2000/svg">
<mask id="mask0_909_2226" style="mask-type:alpha" maskUnits="userSpaceOnUse" x="0" y="0" width="80" height="80">
<rect width="80" height="80" fill="#D9D9D9"/>
</mask>
<g mask="url(#mask0_909_2226)">
<path d="M28 55.5126L40 43.5126L52 55.5126L55.5127 51.9998L43.5127 39.9998L55.5127 27.9998L52 24.4871L40 36.4871L28 24.4871L24.4872 27.9998L36.4872 39.9998L24.4872 51.9998L28 55.5126ZM40.0055 71.6664C35.6258 71.6664 31.509 70.8353 27.6552 69.1731C23.8014 67.5109 20.4491 65.255 17.5984 62.4056C14.7476 59.5561 12.4907 56.2053 10.8278 52.3532C9.16485 48.5011 8.33337 44.3852 8.33337 40.0054C8.33337 35.6256 9.16449 31.5089 10.8267 27.6551C12.4889 23.8013 14.7448 20.449 17.5942 17.5983C20.4437 14.7475 23.7945 12.4906 27.6466 10.8277C31.4987 9.16473 35.6146 8.33325 39.9944 8.33325C44.3742 8.33325 48.4909 9.16437 52.3447 10.8266C56.1986 12.4888 59.5508 14.7446 62.4015 17.5941C65.2523 20.4436 67.5092 23.7944 69.1721 27.6465C70.8351 31.4986 71.6665 35.6145 71.6665 39.9943C71.6665 44.374 70.8354 48.4908 69.1732 52.3446C67.511 56.1984 65.2552 59.5507 62.4057 62.4014C59.5562 65.2522 56.2054 67.5091 52.3533 69.172C48.5012 70.835 44.3853 71.6664 40.0055 71.6664Z" fill="#F03636"/>
</g>
</svg>
