<svg width="80" height="80" viewBox="0 0 80 80" fill="none" xmlns="http://www.w3.org/2000/svg">
<mask id="mask0_2412_4547" style="mask-type:alpha" maskUnits="userSpaceOnUse" x="0" y="0" width="80" height="80">
<rect width="80" height="80" fill="#E3E3E3"/>
</mask>
<g mask="url(#mask0_2412_4547)">
<path d="M28.0001 55.5127L40.0001 43.5127L52.0001 55.5127L55.5128 51.9999L43.5128 39.9999L55.5128 27.9999L52.0001 24.4872L40.0001 36.4872L28.0001 24.4872L24.4873 27.9999L36.4873 39.9999L24.4873 51.9999L28.0001 55.5127ZM40.0057 71.6665C35.6259 71.6665 31.5091 70.8354 27.6553 69.1732C23.8015 67.5109 20.4492 65.2551 17.5985 62.4057C14.7477 59.5562 12.4909 56.2053 10.8279 52.3532C9.16497 48.5012 8.3335 44.3853 8.3335 40.0055C8.3335 35.6257 9.16461 31.5089 10.8268 27.6551C12.4891 23.8013 14.7449 20.449 17.5943 17.5983C20.4438 14.7475 23.7946 12.4907 27.6467 10.8277C31.4988 9.16479 35.6147 8.33331 39.9945 8.33331C44.3743 8.33331 48.4911 9.16443 52.3448 10.8267C56.1987 12.4889 59.5509 14.7447 62.4017 17.5941C65.2524 20.4436 67.5093 23.7945 69.1723 27.6466C70.8352 31.4986 71.6667 35.6145 71.6667 39.9943C71.6667 44.3741 70.8356 48.4909 69.1733 52.3447C67.5111 56.1985 65.2553 59.5508 62.4058 62.4015C59.5563 65.2523 56.2055 67.5091 52.3534 69.1721C48.5014 70.835 44.3854 71.6665 40.0057 71.6665Z" fill="#F03636"/>
</g>
</svg>
