<svg width="80" height="80" viewBox="0 0 80 80" fill="none" xmlns="http://www.w3.org/2000/svg">
<mask id="mask0_905_2055" style="mask-type:alpha" maskUnits="userSpaceOnUse" x="0" y="0" width="80" height="80">
<rect width="80" height="80" fill="#D9D9D9"/>
</mask>
<g mask="url(#mask0_905_2055)">
<path d="M35.3337 55.3334L58.8337 31.8334L54.167 27.1667L35.3337 46.0001L25.8337 36.5001L21.167 41.1667L35.3337 55.3334ZM40.0003 73.3334C35.3892 73.3334 31.0559 72.4584 27.0003 70.7084C22.9448 68.9584 19.417 66.5834 16.417 63.5834C13.417 60.5834 11.042 57.0556 9.29199 53.0001C7.54199 48.9445 6.66699 44.6112 6.66699 40.0001C6.66699 35.389 7.54199 31.0556 9.29199 27.0001C11.042 22.9445 13.417 19.4167 16.417 16.4167C19.417 13.4167 22.9448 11.0417 27.0003 9.29175C31.0559 7.54175 35.3892 6.66675 40.0003 6.66675C44.6114 6.66675 48.9448 7.54175 53.0003 9.29175C57.0559 11.0417 60.5837 13.4167 63.5837 16.4167C66.5837 19.4167 68.9587 22.9445 70.7087 27.0001C72.4587 31.0556 73.3337 35.389 73.3337 40.0001C73.3337 44.6112 72.4587 48.9445 70.7087 53.0001C68.9587 57.0556 66.5837 60.5834 63.5837 63.5834C60.5837 66.5834 57.0559 68.9584 53.0003 70.7084C48.9448 72.4584 44.6114 73.3334 40.0003 73.3334Z" fill="#009506"/>
</g>
</svg>
