<svg width="200" height="26" viewBox="0 0 200 26" fill="none" xmlns="http://www.w3.org/2000/svg">
<path d="M185.259 0.595515C190.114 0.61173 194.969 0.56268 199.824 0.615378C199.979 0.619432 199.993 0.635647 199.999 0.790093C200.001 2.96167 199.999 5.13325 200 7.30482C200 7.58575 199.999 7.58615 199.716 7.58615C196.501 7.58615 193.286 7.58615 190.071 7.58615C189.737 7.58615 189.764 7.57358 189.763 7.89302C189.76 8.28744 189.769 8.68187 189.759 9.07589C187.145 9.39208 184.118 9.07792 181.37 9.18575C181.205 9.18534 181.134 9.13751 181.129 8.9782C181.12 8.63728 181.12 8.29515 181.125 7.95463C181.133 7.92301 181.196 8.00571 181.183 7.92545C181.216 7.56832 181.129 7.57237 180.801 7.58656C177.563 7.58169 174.323 7.59588 171.085 7.58129C170.707 5.55767 171.078 3.0695 170.954 0.895895C170.954 0.616594 170.956 0.619026 171.244 0.614162C175.915 0.566328 180.587 0.607676 185.259 0.595515Z" fill="white"/>
<path d="M19.4449 0.454458C21.8804 0.424866 24.3455 0.398517 26.7137 0.96847C30.6689 1.92028 33.5956 4.75951 34.5361 8.75161C34.5815 8.88538 34.7035 9.2117 34.4729 9.19225C31.6122 9.1813 28.7478 9.18576 25.8887 9.18819C25.5158 9.27575 25.0796 8.238 24.5401 8.05194C24.1432 7.78561 23.6997 7.71913 23.255 7.60967C20.0733 7.54482 16.8704 7.60846 13.6818 7.58697C13.1276 7.47347 13.4746 8.48001 13.383 8.82376C13.3834 9.00253 13.4037 9.23481 13.154 9.189C10.5109 9.18171 7.86752 9.189 5.22409 9.18616C5.00519 9.18535 4.67562 9.24332 4.74737 8.9093C4.76561 6.19209 4.66954 3.17734 4.72548 0.463376L19.4449 0.454458Z" fill="white"/>
<path d="M144.85 9.18532C143.405 9.18573 141.959 9.18492 140.513 9.18573C140.145 9.14559 140.538 8.38268 140.498 8.13743C141.229 4.13925 144.813 1.54366 148.612 0.741022C154.41 -0.450771 162.766 -0.619406 167.492 3.42661C168.761 4.55841 169.576 6.07977 170.037 7.69761C169.986 8.08798 170.492 8.98831 170.135 9.1837C167.238 9.18694 164.34 9.1841 161.444 9.18451C160.965 8.98912 160.751 8.25378 160.215 8.03366C157.884 6.67121 153.829 6.81025 151.308 7.58694C150.575 7.86178 149.872 8.30972 149.46 8.99196C149.377 9.13222 149.267 9.19019 149.098 9.18937C147.682 9.1837 146.267 9.18613 144.85 9.18613C144.85 9.18573 144.85 9.18532 144.85 9.18532Z" fill="white"/>
<path d="M65.731 9.2048C60.1003 9.29033 54.4069 9.11886 48.7511 9.18655C48.1261 9.2506 48.3729 8.04422 48.2781 7.63601C48.5055 1.01791 56.7394 0.153249 61.8897 0.0535278C66.8165 0.100551 73.5538 -0.29874 76.8503 4.04887C77.6233 5.12432 77.9894 6.40205 78.1905 7.69154C75.468 8.02354 72.2672 7.69195 69.3874 7.80788C68.976 7.756 68.5637 6.80945 67.9893 6.60231C65.9263 5.50943 63.4333 5.60672 61.1669 5.76846C60.2074 5.91642 59.23 5.99952 58.3459 6.43935C57.5485 6.69027 56.7297 8.03651 57.8505 8.41675C60.3971 9.23601 63.1463 8.82212 65.731 9.2048Z" fill="white"/>
<path d="M97.2525 9.18531C91.5854 9.328 85.8563 9.10018 80.1624 9.18653C79.7773 9.19869 79.9034 8.58374 79.7907 8.32552C79.2872 1.19827 88.2014 0.070527 93.5766 0.0518799C98.6729 0.113902 105.923 -0.299983 108.797 4.79878C109.039 5.19159 109.979 7.71057 109.513 7.80543C106.681 7.80948 103.85 7.80502 101.018 7.80624C100.804 7.82732 100.644 7.79164 100.523 7.59342C98.7195 5.23496 94.8288 5.59128 92.176 5.85194C90.9899 6.00112 89.3563 6.20015 88.835 7.44505C88.689 7.92582 88.974 8.39119 89.484 8.46213C91.996 9.19707 94.6934 8.87682 97.2525 9.18531Z" fill="white"/>
<path d="M124.875 0.602756C128.875 0.605593 132.875 0.593432 136.874 0.596675C137.128 0.659913 137.743 0.457633 137.761 0.786389C137.764 2.49908 137.762 4.21178 137.762 5.92448C137.761 6.22891 137.812 6.24513 137.446 6.24513C131.865 6.24675 126.284 6.24067 120.703 6.24715C120.375 6.39876 120.679 8.18159 120.581 8.65668C120.572 8.79694 120.6 9.02841 120.784 9.02354C126.407 9.02598 132.029 9.01949 137.651 9.02557C138.047 9.26879 137.263 9.26028 137.113 9.24528C128.814 9.09124 120.003 9.55215 111.956 8.99841C111.995 6.30958 111.96 3.61913 111.971 0.929891C111.971 0.582082 111.974 0.620187 112.293 0.613701C116.487 0.566678 120.681 0.60762 124.875 0.595459C124.875 0.597892 124.875 0.600323 124.875 0.602756Z" fill="white"/>
<path d="M19.3555 18.4878C24.1815 18.4938 29.0083 18.476 33.8342 18.4943C34.0178 18.5368 33.8054 18.8311 33.771 18.9349C32.6298 21.3039 30.6472 23.2789 28.1825 24.2307C27.4281 24.5485 26.6279 24.739 25.8184 24.827C18.8804 25.18 11.8716 24.857 4.91133 24.9607C4.78445 24.9518 4.75648 24.923 4.74756 24.801C4.74554 22.8001 4.74837 20.7988 4.74797 18.7975C4.74797 18.4999 4.75891 18.4882 5.05402 18.4878C9.82079 18.4878 14.5884 18.4878 19.3555 18.4878Z" fill="white"/>
<path d="M53.1858 18.4878C54.6784 18.4878 56.171 18.489 57.6635 18.4866C58.3069 18.5535 58.7828 19.1469 59.4293 19.301C61.7999 19.9641 65.353 19.98 67.6786 19.1891C68.2178 19.1129 68.5563 18.6126 69.0476 18.489C72.0267 18.4882 75.0061 18.4845 77.9852 18.4902C78.1299 18.4991 78.162 18.5348 78.1348 18.6807C77.9341 20.0578 77.2823 21.3546 76.2377 22.2849C71.6128 26.1919 62.4481 25.5944 56.7 25.0471C53.3102 24.54 49.52 22.9015 48.6014 19.2576C48.6468 19.0367 48.2394 18.5676 48.5135 18.4918C50.0701 18.4797 51.6284 18.4918 53.1858 18.4878Z" fill="white"/>
<path d="M84.7059 18.4878C86.327 18.5956 88.0904 18.2689 89.647 18.6196C90.0949 19.0205 90.6673 19.2183 91.2344 19.3914C93.5913 19.9386 96.9907 19.9824 99.262 19.1417C99.793 19.108 100.082 18.5328 100.579 18.4866C103.463 18.4906 106.348 18.4862 109.233 18.4882C110.155 18.2859 109.114 20.3416 108.956 20.723C108.54 21.4819 107.965 22.1499 107.269 22.6656C102.506 25.9604 95.9834 25.4403 90.4237 25.2912C87.1738 25.0204 83.4849 24.3803 81.3194 21.6846C80.9197 21.2764 79.5873 18.7594 80.0693 18.4902C81.6141 18.4838 83.1602 18.4898 84.7059 18.4878Z" fill="white"/>
<path d="M155.31 18.4878C160.089 18.4914 164.867 18.4805 169.645 18.4918C170.022 18.4805 169.269 19.6009 169.229 19.7975C167.902 22.3887 165.2 23.8752 162.487 24.6186C157.65 25.7419 152.403 25.7889 147.605 24.4399C145.038 23.7155 142.586 22.1333 141.339 19.7079C141.241 19.4765 140.657 18.478 140.975 18.4785C145.753 18.5036 150.532 18.4797 155.31 18.4878Z" fill="white"/>
<path d="M124.856 24.9624C120.609 24.827 116.038 25.2238 111.945 24.8241C111.996 22.7993 111.986 20.7615 111.951 18.7346C111.927 18.5372 111.975 18.4914 112.17 18.4874C114.837 18.4874 117.503 18.4874 120.17 18.4878C120.954 18.3268 120.268 19.2231 120.746 19.2572C126.108 19.2199 131.472 19.2535 136.834 19.2438C137.099 19.3046 137.742 19.1039 137.763 19.423C137.764 21.177 137.762 22.931 137.763 24.6847C137.763 24.962 137.762 24.9624 137.476 24.9624C133.269 24.9624 129.063 24.9624 124.856 24.9624Z" fill="white"/>
<path d="M120.102 10.1578C124.343 10.2835 128.888 9.9154 132.982 10.2859C132.99 11.7813 132.983 13.2763 132.984 14.7713C132.983 15.0482 133.031 15.0746 132.685 15.0746C127.122 15.0742 121.558 15.0729 115.994 15.0746C115.616 14.9866 115.859 16.4694 115.836 16.754C115.85 16.9397 115.82 17.0901 115.605 17.082C113.062 17.0864 110.519 17.0832 107.976 17.0828C107.685 17.0358 107.111 17.2178 107.199 16.75C107.199 14.6485 107.198 12.5475 107.199 10.446C107.199 10.1606 107.2 10.1602 107.482 10.1602C111.689 10.1602 115.896 10.1602 120.103 10.1602C120.102 10.159 120.102 10.1586 120.102 10.1578Z" fill="white"/>
<path d="M100.334 17.0823C98.8241 17.0742 97.3136 17.0994 95.8036 17.071C95.6796 17.0665 95.6399 16.9887 95.7246 16.8825C96.2118 16.2238 95.6986 15.6526 95.0322 15.5083C91.5553 14.8208 87.9808 15.0749 84.4755 14.6201C82.246 14.3566 79.9568 14.0019 77.9219 12.9836C76.7937 12.4234 75.807 11.5575 75.289 10.3957C75.1698 9.92672 76.2282 10.2478 76.5031 10.1582C84.7479 10.5404 93.3698 9.02841 101.313 11.6621C103.435 12.4384 105.196 14.3412 104.94 16.7207C104.924 17.0515 104.897 17.0819 104.565 17.0823C103.155 17.0836 101.745 17.0827 100.334 17.0827C100.334 17.0827 100.334 17.0827 100.334 17.0823Z" fill="white"/>
<path d="M43.7399 10.2304C50.4317 10.1708 57.2594 9.90974 63.9464 10.3852C65.8667 10.5575 67.7934 10.9033 69.5977 11.5884C71.8252 12.316 73.7345 14.2638 73.4358 16.7407C73.4524 17.0621 73.2619 17.0978 72.9834 17.0828C70.1162 17.0832 67.2494 17.0832 64.3822 17.0832C64.1661 17.0832 64.1378 17.0913 64.2574 16.859C65.2169 15.0568 61.5568 15.3036 60.5681 15.133C55.824 14.621 45.9625 15.3478 43.7399 10.2304Z" fill="white"/>
<path d="M14.788 17.0836C9.92188 17.0739 5.05336 17.1039 0.188498 17.0719C-0.0344567 17.1006 0.0227008 16.7735 0 16.6296C0.000810743 14.5756 0.000810626 12.5216 0.00162137 10.4679C0.00162137 10.1668 0.00770199 10.1599 0.307272 10.1599C2.98556 10.1586 5.66385 10.159 8.34214 10.159C8.57807 10.1639 8.62266 10.1497 8.61537 10.4002C8.61577 12.3481 8.61537 14.2963 8.61577 16.2441C8.61577 16.5197 8.61618 16.5185 8.88291 16.5185C12.0566 16.5108 15.231 16.5319 18.4043 16.508C21.5342 16.1841 21.961 12.4186 20.9974 10.1773C23.9234 10.1396 26.8624 10.1501 29.7916 10.1716C30.0778 10.3305 30.0003 11.1486 30.062 11.4773C30.1726 12.888 30.0705 14.3028 29.7077 15.6729C29.52 16.0669 29.4811 17.0131 28.9991 17.0844C24.2627 17.0824 19.5251 17.0844 14.788 17.0836Z" fill="white"/>
<path d="M143.485 17.0828C140.675 17.0634 138.497 17.1205 136.179 17.0617C135.719 16.5116 135.789 15.5663 135.594 14.8638C135.531 14.3247 135.195 9.99529 135.819 10.1607C138.657 10.1599 141.494 10.1591 144.332 10.1591C144.545 10.1591 144.56 10.1757 144.471 10.365C144.215 10.9913 144.125 11.6776 144.138 12.3489C144.085 13.5095 144.274 14.7933 145.167 15.6214C147.191 17.583 155.078 17.7229 156.499 14.9262C156.632 14.6757 156.706 14.2878 157.075 14.3611C159.812 14.3611 162.55 14.3616 165.287 14.362C165.925 14.2809 165.336 15.3312 165.397 15.6908C165.378 16.1018 165.199 16.4727 165.122 16.872C165.106 17.0844 164.891 17.0893 164.721 17.0832C157.848 17.0929 150.216 17.0581 143.485 17.0828Z" fill="white"/>
<path d="M46.0006 4.90018C46.0006 6.23021 46.0006 7.56023 46.0006 8.89025C46.0006 9.18496 46.0006 9.18536 45.7079 9.18536C43.0005 9.18293 40.2926 9.19266 37.5851 9.18334C37.1927 9.16429 37.4736 8.42002 37.4144 8.14923C37.397 5.73768 37.4509 3.32126 37.395 0.912132C37.3873 0.758496 37.3767 0.561891 37.59 0.58216C40.2683 0.579322 42.9461 0.58216 45.6244 0.581349C45.7659 0.599591 46.016 0.512436 45.9998 0.734174C46.0031 2.12257 45.999 3.51138 46.0006 4.90018Z" fill="white"/>
<path d="M36.9401 10.1578C38.2616 10.1578 39.5831 10.1574 40.9042 10.1578C41.2188 10.1578 41.2192 10.159 41.2192 10.4642C41.0891 12.6127 41.4738 15.081 41.0809 17.0787C38.4675 17.0908 35.8541 17.0795 33.2406 17.0823C32.7895 17.0726 32.5957 17.133 32.5742 16.5906C32.5771 14.6132 32.5771 12.6358 32.5742 10.6584C32.6184 10.5137 32.5916 10.2011 32.7457 10.163C34.1438 10.1529 35.5419 10.1626 36.9401 10.1594C36.9401 10.1586 36.9401 10.1582 36.9401 10.1578Z" fill="white"/>
<path d="M180.71 10.1578C182.031 10.1578 183.352 10.1574 184.673 10.1582C185.084 10.1586 185.023 10.1619 185.023 10.517C185.025 12.6468 185.024 14.7766 185.025 16.9064C185.023 17.0418 185.016 17.054 184.878 17.0722C182.757 17.1026 180.632 17.0738 178.509 17.0836C177.852 17.0045 176.954 17.2538 176.412 16.9603C176.387 14.7665 176.41 12.571 176.402 10.3771C176.368 10.1825 176.506 10.1351 176.676 10.159C178.021 10.159 179.365 10.159 180.71 10.159C180.71 10.1586 180.71 10.1582 180.71 10.1578Z" fill="white"/>
<path d="M185.477 24.9624C184.114 24.9619 182.752 24.9636 181.389 24.9619C181.087 24.9871 181.141 24.544 181.121 24.3413C181.307 16.135 179.303 18.9754 189.43 18.4878C189.762 18.4878 189.762 18.4886 189.762 18.8161C189.763 20.7757 189.763 22.7356 189.763 24.6952C189.763 24.9534 189.755 24.9624 189.495 24.9624C188.156 24.9628 186.817 24.9624 185.477 24.9624Z" fill="white"/>
<path d="M41.7076 18.4882C43.0344 18.4882 44.3616 18.4878 45.6884 18.4886C46.0313 18.4886 46.0001 18.4955 46.0001 18.7971C46.0005 20.7327 46.0005 22.6684 46.0001 24.604C46.0001 24.923 45.9977 24.923 45.6713 24.923C42.9825 24.9198 40.292 24.9291 37.6048 24.9157C37.1946 24.923 37.4589 24.2923 37.4135 24.0393C37.4163 22.4272 37.4131 20.815 37.4139 19.2032C37.4678 18.9896 37.255 18.5871 37.5136 18.4926C38.9109 18.478 40.3091 18.4918 41.7068 18.4874C41.7076 18.4878 41.7076 18.4882 41.7076 18.4882Z" fill="white"/>
<path d="M80.0057 17.0832C78.5606 17.0832 77.1154 17.084 75.6703 17.082C75.0695 17.157 75.0504 16.8213 75.0476 16.3154C75.3127 16.043 75.9573 16.2765 76.346 16.2015C78.893 16.3203 81.6442 15.9704 84.0939 16.3284C84.1093 16.5335 84.8763 17.0504 84.5357 17.0836C83.0257 17.0852 81.5157 17.0836 80.0057 17.0844C80.0057 17.0836 80.0057 17.0832 80.0057 17.0832Z" fill="white"/>
<path d="M53.1423 17.0427C50.2126 17.1566 47.2315 17.0455 44.2845 17.0824C44.0757 17.0415 43.6651 17.1675 43.6189 16.8874C43.6408 16.6916 43.4405 16.2919 43.6724 16.2113C44.4973 16.1861 45.3243 16.2084 46.15 16.2007C48.1975 16.2007 50.2447 16.2027 52.2922 16.1979C52.6469 16.2007 52.9059 16.7861 53.1423 17.0427Z" fill="white"/>
<path d="M161.064 10.1574C162.462 10.1574 163.86 10.1574 165.258 10.1574C165.625 10.0666 165.748 10.6762 165.369 10.6308C162.584 10.6304 159.8 10.6296 157.015 10.6321C156.765 10.6649 156.699 10.4744 156.588 10.292C156.519 10.1355 156.739 10.161 156.833 10.1598C158.243 10.1594 159.653 10.1594 161.063 10.1594C161.064 10.1586 161.064 10.1582 161.064 10.1574Z" fill="white"/>
</svg>
