<svg width="200" height="26" viewBox="0 0 200 26" fill="none" xmlns="http://www.w3.org/2000/svg">
<path d="M185.259 0.637996C190.114 0.654211 194.969 0.60516 199.824 0.657858C199.979 0.661912 199.993 0.678127 199.999 0.832574C200.001 3.00415 199.999 5.17573 200 7.3473C200 7.62823 199.999 7.62863 199.716 7.62863C196.501 7.62863 193.286 7.62863 190.071 7.62863C189.737 7.62863 189.764 7.61607 189.763 7.9355C189.76 8.32993 189.769 8.72435 189.759 9.11837C187.145 9.43456 184.118 9.1204 181.37 9.22823C181.205 9.22782 181.134 9.17999 181.129 9.02068C181.12 8.67976 181.12 8.33763 181.125 7.99711C181.133 7.9655 181.196 8.04819 181.183 7.96793C181.216 7.6108 181.129 7.61485 180.801 7.62904C177.563 7.62417 174.323 7.63836 171.085 7.62377C170.707 5.60015 171.078 3.11198 170.954 0.938376C170.954 0.659075 170.956 0.661507 171.244 0.656642C175.915 0.608809 180.587 0.650157 185.259 0.637996Z" fill="white"/>
<path d="M19.4452 0.496939C21.8807 0.467346 24.3457 0.440998 26.7139 1.01095C30.6691 1.96276 33.5959 4.80199 34.5364 8.79409C34.5818 8.92786 34.7038 9.25418 34.4731 9.23473C31.6124 9.22378 28.7481 9.22824 25.889 9.23067C25.516 9.31823 25.0798 8.28048 24.5403 8.09442C24.1434 7.82809 23.7 7.76161 23.2553 7.65216C20.0735 7.5873 16.8707 7.65094 13.682 7.62945C13.1279 7.51595 13.4749 8.52249 13.3832 8.86624C13.3837 9.04501 13.4039 9.27729 13.1542 9.23148C10.5112 9.22419 7.86776 9.23148 5.22433 9.22865C5.00543 9.22783 4.67586 9.2858 4.74761 8.95178C4.76585 6.23457 4.66978 3.21982 4.72572 0.505857L19.4452 0.496939Z" fill="white"/>
<path d="M144.85 9.2278C143.404 9.22821 141.959 9.2274 140.513 9.22821C140.145 9.18808 140.538 8.42517 140.498 8.17992C141.229 4.18173 144.813 1.58614 148.612 0.783503C154.409 -0.40829 162.766 -0.576925 167.492 3.46909C168.761 4.60089 169.576 6.12225 170.036 7.74009C169.985 8.13046 170.492 9.03079 170.135 9.22618C167.238 9.22942 164.34 9.22659 161.444 9.22699C160.965 9.0316 160.751 8.29626 160.214 8.07614C157.883 6.71369 153.828 6.85273 151.307 7.62942C150.575 7.90426 149.872 8.3522 149.46 9.03444C149.377 9.1747 149.267 9.23267 149.098 9.23186C147.682 9.22618 146.266 9.22861 144.85 9.22861C144.85 9.22821 144.85 9.2278 144.85 9.2278Z" fill="white"/>
<path d="M65.7312 9.24728C60.1006 9.33281 54.4071 9.16134 48.7514 9.22903C48.1263 9.29308 48.3732 8.0867 48.2783 7.67849C48.5057 1.06039 56.7396 0.19573 61.8899 0.0960083C66.8168 0.143031 73.5541 -0.256259 76.8505 4.09135C77.6236 5.1668 77.9896 6.44454 78.1907 7.73402C75.4682 8.06602 72.2674 7.73443 69.3876 7.85036C68.9762 7.79848 68.5639 6.85193 67.9895 6.64479C65.9266 5.55191 63.4336 5.6492 61.1671 5.81094C60.2076 5.9589 59.2302 6.042 58.3461 6.48183C57.5488 6.73276 56.7299 8.07899 57.8508 8.45923C60.3973 9.27849 63.1465 8.8646 65.7312 9.24728Z" fill="white"/>
<path d="M97.2527 9.22779C91.5856 9.37048 85.8565 9.14266 80.1627 9.22901C79.7776 9.24117 79.9036 8.62622 79.7909 8.368C79.2875 1.24075 88.2016 0.113007 93.5768 0.0943604C98.6732 0.156382 105.923 -0.257502 108.798 4.84126C109.039 5.23407 109.979 7.75305 109.513 7.84791C106.681 7.85196 103.85 7.8475 101.018 7.84872C100.805 7.8698 100.644 7.83412 100.523 7.6359C98.7198 5.27744 94.829 5.63377 92.1763 5.89442C90.9902 6.0436 89.3565 6.24263 88.8352 7.48753C88.6893 7.9683 88.9742 8.43367 89.4842 8.50461C91.9963 9.23955 94.6936 8.9193 97.2527 9.22779Z" fill="white"/>
<path d="M124.875 0.645236C128.875 0.648074 132.874 0.635913 136.874 0.639156C137.128 0.702394 137.743 0.500113 137.761 0.828869C137.764 2.54157 137.762 4.25426 137.762 5.96696C137.761 6.27139 137.812 6.28761 137.446 6.28761C131.865 6.28923 126.284 6.28315 120.703 6.28963C120.375 6.44124 120.678 8.22407 120.58 8.69916C120.571 8.83942 120.599 9.07089 120.784 9.06602C126.406 9.06846 132.029 9.06197 137.651 9.06805C138.047 9.31127 137.263 9.30276 137.113 9.28776C128.814 9.13372 120.003 9.59463 111.956 9.04089C111.995 6.35206 111.959 3.66161 111.971 0.972371C111.971 0.624562 111.974 0.662667 112.293 0.656181C116.486 0.609158 120.681 0.650101 124.875 0.63794C124.875 0.640372 124.875 0.642804 124.875 0.645236Z" fill="white"/>
<path d="M19.3558 18.5302C24.1817 18.5363 29.0085 18.5185 33.8344 18.5367C34.0181 18.5793 33.8057 18.8736 33.7712 18.9774C32.6301 21.3464 30.6474 23.3213 28.1828 24.2731C27.4284 24.591 26.6282 24.7815 25.8186 24.8695C18.8807 25.2225 11.8718 24.8994 4.91158 25.0032C4.7847 24.9943 4.75673 24.9655 4.74781 24.8435C4.74578 22.8426 4.74862 20.8413 4.74821 18.84C4.74821 18.5424 4.75916 18.5307 5.05427 18.5302C9.82103 18.5302 14.5886 18.5302 19.3558 18.5302Z" fill="white"/>
<path d="M53.1858 18.5303C54.6784 18.5303 56.171 18.5315 57.6635 18.529C58.3069 18.5959 58.7828 19.1894 59.4293 19.3434C61.7999 20.0066 65.353 20.0224 67.6786 19.2316C68.2178 19.1553 68.5563 18.6551 69.0476 18.5315C72.0267 18.5307 75.0061 18.527 77.9852 18.5327C78.1299 18.5416 78.162 18.5773 78.1348 18.7232C77.9341 20.1003 77.2823 21.3971 76.2377 22.3274C71.6128 26.2344 62.4481 25.6368 56.7 25.0896C53.3102 24.5825 49.52 22.944 48.6014 19.3001C48.6468 19.0791 48.2394 18.6101 48.5135 18.5343C50.0701 18.5222 51.6284 18.5343 53.1858 18.5303Z" fill="white"/>
<path d="M84.7062 18.5303C86.3272 18.6381 88.0906 18.3114 89.6472 18.662C90.0952 19.063 90.6676 19.2608 91.2347 19.4339C93.5915 19.9811 96.9909 20.0249 99.2622 19.1842C99.7933 19.1505 100.082 18.5753 100.579 18.5291C103.464 18.5331 106.348 18.5287 109.233 18.5307C110.155 18.3284 109.114 20.3841 108.956 20.7655C108.54 21.5244 107.965 22.1924 107.27 22.7081C102.506 26.0029 95.9836 25.4828 90.4239 25.3336C87.1741 25.0629 83.4852 24.4228 81.3197 21.7271C80.92 21.3188 79.5875 18.8019 80.0695 18.5327C81.6144 18.5262 83.1605 18.5323 84.7062 18.5303Z" fill="white"/>
<path d="M155.31 18.5303C160.088 18.5339 164.866 18.523 169.645 18.5343C170.021 18.523 169.268 19.6434 169.229 19.84C167.902 22.4312 165.2 23.9177 162.487 24.6611C157.649 25.7844 152.403 25.8314 147.605 24.4823C145.038 23.7579 142.586 22.1758 141.339 19.7504C141.241 19.519 140.657 18.5205 140.975 18.5209C145.753 18.5461 150.531 18.5222 155.31 18.5303Z" fill="white"/>
<path d="M124.856 25.0048C120.608 24.8694 116.037 25.2663 111.944 24.8666C111.995 22.8418 111.985 20.804 111.951 18.7771C111.927 18.5797 111.975 18.5339 112.17 18.5298C114.836 18.5298 117.503 18.5298 120.17 18.5302C120.953 18.3693 120.268 19.2656 120.746 19.2996C126.108 19.2623 131.472 19.296 136.834 19.2863C137.099 19.3471 137.742 19.1464 137.762 19.4654C137.763 21.2195 137.762 22.9735 137.762 24.7272C137.762 25.0044 137.762 25.0048 137.476 25.0048C133.269 25.0048 129.062 25.0048 124.856 25.0048Z" fill="white"/>
<path d="M120.102 10.2003C124.343 10.326 128.888 9.95788 132.982 10.3284C132.99 11.8238 132.983 13.3188 132.983 14.8138C132.983 15.0907 133.03 15.117 132.685 15.117C127.121 15.1166 121.558 15.1154 115.994 15.117C115.616 15.0291 115.858 16.5119 115.835 16.7965C115.849 16.9822 115.82 17.1326 115.604 17.1244C113.061 17.1289 110.518 17.1257 107.976 17.1253C107.684 17.0782 107.111 17.2602 107.198 16.7924C107.198 14.691 107.198 12.59 107.198 10.4885C107.198 10.2031 107.199 10.2027 107.482 10.2027C111.689 10.2027 115.895 10.2027 120.102 10.2027C120.102 10.2015 120.102 10.2011 120.102 10.2003Z" fill="white"/>
<path d="M100.334 17.1248C98.8237 17.1167 97.3133 17.1418 95.8033 17.1135C95.6792 17.109 95.6395 17.0312 95.7242 16.925C96.2115 16.2662 95.6983 15.6951 95.0318 15.5508C91.555 14.8632 87.9804 15.1174 84.4752 14.6626C82.2456 14.3991 79.9565 14.0444 77.9215 13.0261C76.7934 12.4659 75.8067 11.6 75.2886 10.4382C75.1694 9.9692 76.2279 10.2903 76.5027 10.2007C84.7476 10.5829 93.3694 9.07089 101.313 11.7046C103.435 12.4809 105.196 14.3837 104.94 16.7632C104.923 17.094 104.897 17.1244 104.565 17.1248C103.154 17.126 101.744 17.1252 100.334 17.1252C100.334 17.1252 100.334 17.1252 100.334 17.1248Z" fill="white"/>
<path d="M43.7402 10.2729C50.4321 10.2133 57.2598 9.95222 63.9468 10.4277C65.867 10.6 67.7938 10.9458 69.5981 11.6309C71.8256 12.3585 73.7349 14.3063 73.4361 16.7831C73.4528 17.1046 73.2622 17.1403 72.9838 17.1253C70.1166 17.1257 67.2498 17.1257 64.3826 17.1257C64.1665 17.1257 64.1381 17.1338 64.2577 16.9015C65.2172 15.0992 61.5571 15.3461 60.5684 15.1754C55.8244 14.6635 45.9629 15.3903 43.7402 10.2729Z" fill="white"/>
<path d="M14.788 17.1261C9.92188 17.1164 5.05336 17.1464 0.188498 17.1143C-0.0344567 17.1431 0.0227008 16.816 0 16.6721C0.000810743 14.6181 0.000810626 12.564 0.00162137 10.5104C0.00162137 10.2092 0.00770199 10.2023 0.307272 10.2023C2.98556 10.2011 5.66385 10.2015 8.34214 10.2015C8.57807 10.2064 8.62266 10.1922 8.61537 10.4427C8.61577 12.3905 8.61537 14.3388 8.61577 16.2866C8.61577 16.5622 8.61618 16.561 8.88291 16.561C12.0566 16.5533 15.231 16.5744 18.4043 16.5505C21.5342 16.2266 21.961 12.4611 20.9974 10.2198C23.9234 10.1821 26.8624 10.1926 29.7916 10.2141C30.0778 10.373 30.0003 11.191 30.062 11.5198C30.1726 12.9305 30.0705 14.3452 29.7077 15.7154C29.52 16.1094 29.4811 17.0556 28.9991 17.1269C24.2627 17.1249 19.5251 17.1269 14.788 17.1261Z" fill="white"/>
<path d="M143.485 17.1253C140.675 17.1058 138.497 17.163 136.179 17.1042C135.719 16.5541 135.789 15.6088 135.594 14.9063C135.531 14.3671 135.195 10.0378 135.819 10.2032C138.657 10.2024 141.494 10.2015 144.332 10.2015C144.545 10.2015 144.56 10.2182 144.472 10.4075C144.215 11.0338 144.125 11.7201 144.138 12.3914C144.085 13.5519 144.275 14.8358 145.168 15.6639C147.192 17.6255 155.078 17.7654 156.5 14.9687C156.632 14.7182 156.706 14.3303 157.075 14.4036C159.813 14.4036 162.55 14.404 165.288 14.4044C165.925 14.3234 165.337 15.3737 165.398 15.7332C165.378 16.1443 165.2 16.5152 165.122 16.9145C165.107 17.1269 164.892 17.1318 164.721 17.1257C157.848 17.1354 150.216 17.1006 143.485 17.1253Z" fill="white"/>
<path d="M46.0009 4.94266C46.0009 6.27269 46.0009 7.60271 46.0009 8.93273C46.0009 9.22744 46.0009 9.22785 45.7082 9.22785C43.0007 9.22541 40.2928 9.23514 37.5854 9.22582C37.193 9.20677 37.4739 8.4625 37.4147 8.19171C37.3973 5.78016 37.4512 3.36374 37.3952 0.954613C37.3875 0.800977 37.377 0.604372 37.5902 0.62464C40.2685 0.621803 42.9464 0.62464 45.6247 0.623829C45.7662 0.642071 46.0163 0.554916 46.0001 0.776655C46.0033 2.16505 45.9992 3.55386 46.0009 4.94266Z" fill="white"/>
<path d="M36.9401 10.2003C38.2616 10.2003 39.5831 10.1998 40.9042 10.2003C41.2188 10.2003 41.2192 10.2015 41.2192 10.5067C41.0891 12.6552 41.4738 15.1235 41.0809 17.1212C38.4675 17.1333 35.8541 17.122 33.2406 17.1248C32.7895 17.1151 32.5957 17.1755 32.5742 16.6331C32.5771 14.6557 32.5771 12.6783 32.5742 10.7009C32.6184 10.5562 32.5916 10.2436 32.7457 10.2055C34.1438 10.1954 35.5419 10.2051 36.9401 10.2019C36.9401 10.2011 36.9401 10.2007 36.9401 10.2003Z" fill="white"/>
<path d="M180.709 10.2003C182.031 10.2003 183.352 10.1999 184.673 10.2007C185.084 10.2011 185.023 10.2043 185.023 10.5594C185.025 12.6893 185.024 14.8191 185.025 16.9489C185.023 17.0843 185.015 17.0965 184.878 17.1147C182.756 17.1451 180.632 17.1163 178.509 17.1261C177.852 17.047 176.954 17.2963 176.411 17.0028C176.387 14.809 176.41 12.6135 176.402 10.4196C176.368 10.225 176.505 10.1776 176.676 10.2015C178.02 10.2015 179.365 10.2015 180.709 10.2015C180.709 10.2011 180.709 10.2007 180.709 10.2003Z" fill="white"/>
<path d="M185.477 25.0048C184.114 25.0044 182.752 25.006 181.389 25.0044C181.086 25.0296 181.14 24.5865 181.121 24.3838C181.307 16.1775 179.302 19.0179 189.43 18.5302C189.761 18.5302 189.762 18.531 189.762 18.8586C189.763 20.8182 189.763 22.7781 189.763 24.7377C189.763 24.9959 189.755 25.0048 189.494 25.0048C188.155 25.0052 186.816 25.0048 185.477 25.0048Z" fill="white"/>
<path d="M41.7076 18.5306C43.0344 18.5306 44.3616 18.5302 45.6884 18.531C46.0313 18.531 46.0001 18.5379 46.0001 18.8395C46.0005 20.7752 46.0005 22.7108 46.0001 24.6465C46.0001 24.9655 45.9977 24.9655 45.6713 24.9655C42.9825 24.9623 40.292 24.9716 37.6048 24.9582C37.1946 24.9655 37.4589 24.3348 37.4135 24.0818C37.4163 22.4696 37.4131 20.8575 37.4139 19.2457C37.4678 19.0321 37.255 18.6296 37.5136 18.5351C38.9109 18.5205 40.3091 18.5343 41.7068 18.5298C41.7076 18.5302 41.7076 18.5306 41.7076 18.5306Z" fill="white"/>
<path d="M80.006 17.1257C78.5608 17.1257 77.1157 17.1265 75.6705 17.1245C75.0697 17.1995 75.0507 16.8638 75.0479 16.3579C75.313 16.0855 75.9575 16.319 76.3463 16.244C78.8932 16.3628 81.6445 16.0129 84.0941 16.3709C84.1095 16.576 84.8765 17.0928 84.536 17.1261C83.026 17.1277 81.516 17.1261 80.006 17.1269C80.006 17.1261 80.006 17.1257 80.006 17.1257Z" fill="white"/>
<path d="M53.1425 17.0851C50.2129 17.1991 47.2318 17.088 44.2847 17.1249C44.076 17.0839 43.6653 17.21 43.6191 16.9299C43.641 16.7341 43.4408 16.3344 43.6726 16.2537C44.4976 16.2286 45.3245 16.2509 46.1503 16.2432C48.1978 16.2432 50.2449 16.2452 52.2925 16.2404C52.6472 16.2432 52.9062 16.8285 53.1425 17.0851Z" fill="white"/>
<path d="M161.064 10.1998C162.462 10.1998 163.861 10.1998 165.259 10.1998C165.626 10.109 165.748 10.7187 165.369 10.6733C162.584 10.6729 159.8 10.6721 157.015 10.6745C156.765 10.7074 156.699 10.5168 156.589 10.3344C156.519 10.178 156.739 10.2035 156.833 10.2023C158.243 10.2019 159.654 10.2019 161.063 10.2019C161.064 10.2011 161.064 10.2007 161.064 10.1998Z" fill="white"/>
</svg>
