<svg width="17" height="17" viewBox="0 0 17 17" fill="none" xmlns="http://www.w3.org/2000/svg">
<mask id="mask0_2412_4096" style="mask-type:alpha" maskUnits="userSpaceOnUse" x="0" y="0" width="17" height="17">
<rect x="0.5" y="0.229004" width="16" height="16" fill="#D9D9D9"/>
</mask>
<g mask="url(#mask0_2412_4096)">
<path d="M8.51867 11.7162C8.66606 11.7162 8.79039 11.6653 8.89167 11.5635C8.99295 11.4618 9.04358 11.3372 9.04358 11.1898C9.04358 11.0424 8.99271 10.9181 8.89095 10.8168C8.78918 10.7155 8.66461 10.6649 8.51723 10.6649C8.36984 10.6649 8.24551 10.7158 8.14423 10.8176C8.04294 10.9193 7.9923 11.0439 7.9923 11.1913C7.9923 11.3386 8.04318 11.463 8.14495 11.5643C8.24672 11.6655 8.37129 11.7162 8.51867 11.7162ZM8.17435 9.50849H8.81795C8.83504 9.21874 8.88953 8.98328 8.98142 8.80209C9.07329 8.62089 9.26239 8.38969 9.54872 8.10849C9.84615 7.81105 10.0675 7.5446 10.2128 7.30914C10.3581 7.07366 10.4308 6.80111 10.4308 6.49149C10.4308 5.96607 10.2462 5.54737 9.87695 5.2354C9.50773 4.92344 9.07097 4.76745 8.56667 4.76745C8.08718 4.76745 7.68013 4.8978 7.34552 5.15849C7.01089 5.41918 6.76581 5.71875 6.61025 6.0572L7.22308 6.31105C7.32992 6.06832 7.48269 5.85379 7.68142 5.66747C7.88013 5.48114 8.16667 5.38797 8.54103 5.38797C8.97351 5.38797 9.28932 5.50657 9.48847 5.74375C9.68761 5.98093 9.78718 6.24183 9.78718 6.52644C9.78718 6.7572 9.72479 6.9634 9.6 7.14502C9.47521 7.32665 9.31282 7.50935 9.11282 7.6931C8.72649 8.04952 8.47351 8.35165 8.35385 8.59952C8.23418 8.84738 8.17435 9.15037 8.17435 9.50849ZM8.50223 14.229C7.67253 14.229 6.89248 14.0716 6.16207 13.7567C5.43166 13.4418 4.79629 13.0145 4.25598 12.4747C3.71568 11.9349 3.28794 11.3001 2.97277 10.5704C2.65759 9.84064 2.5 9.06093 2.5 8.23124C2.5 7.40154 2.65744 6.62148 2.97232 5.89107C3.28721 5.16066 3.71455 4.5253 4.25435 3.98499C4.79415 3.44469 5.42891 3.01695 6.15863 2.70177C6.88837 2.38659 7.66808 2.229 8.49777 2.229C9.32747 2.229 10.1075 2.38644 10.8379 2.70132C11.5683 3.01621 12.2037 3.44355 12.744 3.98335C13.2843 4.52315 13.7121 5.15792 14.0272 5.88764C14.3424 6.61737 14.5 7.39708 14.5 8.22677C14.5 9.05647 14.3426 9.83653 14.0277 10.5669C13.7128 11.2973 13.2855 11.9327 12.7457 12.473C12.2059 13.0133 11.5711 13.4411 10.8414 13.7562C10.1116 14.0714 9.33192 14.229 8.50223 14.229ZM8.5 13.5623C9.98889 13.5623 11.25 13.0457 12.2833 12.0123C13.3167 10.979 13.8333 9.71789 13.8333 8.229C13.8333 6.74012 13.3167 5.479 12.2833 4.44567C11.25 3.41234 9.98889 2.89567 8.5 2.89567C7.01111 2.89567 5.75 3.41234 4.71667 4.44567C3.68333 5.479 3.16667 6.74012 3.16667 8.229C3.16667 9.71789 3.68333 10.979 4.71667 12.0123C5.75 13.0457 7.01111 13.5623 8.5 13.5623Z" fill="#E3E3E3"/>
</g>
</svg>
