<svg width="24" height="24" viewBox="0 0 24 24" fill="none" xmlns="http://www.w3.org/2000/svg">
<path fill-rule="evenodd" clip-rule="evenodd" d="M11.9721 1.02789C5.91042 1.02789 1 5.93832 1 12C1 18.0462 5.90923 22.9588 11.9733 22.9721C18.0344 22.9714 22.9442 18.0613 22.9442 12C22.9442 5.93832 18.0338 1.02789 11.9721 1.02789ZM11.9721 23.9721C18.586 23.9721 23.9442 18.6139 23.9442 12C23.9442 5.38603 18.586 0.0278931 11.9721 0.0278931C5.35814 0.0278931 0 5.38603 0 12C0 18.6 5.35814 23.9581 11.9721 23.9721Z" fill="#E3E3E3"/>
<path d="M7.40715 7.70807L10.971 12.4733L7.38464 16.3477H8.1918L11.3317 12.9556L13.8686 16.3477H16.6154L12.851 11.3144L16.1892 7.70807H15.382L12.4904 10.8321L10.1539 7.70807H7.40715ZM8.59413 8.30262H9.85601L15.4282 15.7531H14.1664L8.59413 8.30262Z" fill="white"/>
</svg>
