<svg width="16" height="17" viewBox="0 0 16 17" fill="none" xmlns="http://www.w3.org/2000/svg">
<mask id="mask0_1998_10311" style="mask-type:alpha" maskUnits="userSpaceOnUse" x="0" y="0" width="16" height="17">
<rect y="0.5" width="16" height="16" fill="#D9D9D9"/>
</mask>
<g mask="url(#mask0_1998_10311)">
<path d="M8.01867 11.9872C8.16606 11.9872 8.29039 11.9363 8.39167 11.8345C8.49295 11.7328 8.54358 11.6082 8.54358 11.4608C8.54358 11.3134 8.49271 11.1891 8.39095 11.0878C8.28918 10.9865 8.16461 10.9359 8.01723 10.9359C7.86984 10.9359 7.74551 10.9868 7.64423 11.0886C7.54294 11.1903 7.4923 11.3149 7.4923 11.4623C7.4923 11.6096 7.54318 11.734 7.64495 11.8353C7.74672 11.9365 7.87129 11.9872 8.01867 11.9872ZM7.67435 9.77948H8.31795C8.33504 9.48974 8.38953 9.25427 8.48142 9.07308C8.57329 8.89188 8.76239 8.66068 9.04872 8.37948C9.34615 8.08205 9.56752 7.8156 9.71282 7.58013C9.85812 7.34466 9.93077 7.07211 9.93077 6.76248C9.93077 6.23706 9.74616 5.81837 9.37695 5.5064C9.00773 5.19443 8.57097 5.03845 8.06667 5.03845C7.58718 5.03845 7.18013 5.16879 6.84552 5.42948C6.51089 5.69017 6.26581 5.98974 6.11025 6.3282L6.72308 6.58205C6.82992 6.33932 6.98269 6.12479 7.18142 5.93847C7.38013 5.75213 7.66667 5.65897 8.04103 5.65897C8.47351 5.65897 8.78932 5.77756 8.98847 6.01475C9.18761 6.25193 9.28718 6.51282 9.28718 6.79743C9.28718 7.0282 9.22479 7.23439 9.1 7.41602C8.97521 7.59765 8.81282 7.78034 8.61282 7.9641C8.22649 8.32051 7.97351 8.62265 7.85385 8.87052C7.73418 9.11837 7.67435 9.42136 7.67435 9.77948ZM8.00223 14.5C7.17253 14.5 6.39248 14.3426 5.66207 14.0277C4.93166 13.7128 4.29629 13.2855 3.75598 12.7457C3.21568 12.2059 2.78794 11.5711 2.47277 10.8414C2.15759 10.1116 2 9.33192 2 8.50223C2 7.67253 2.15744 6.89248 2.47232 6.16207C2.78721 5.43166 3.21455 4.79629 3.75435 4.25598C4.29415 3.71568 4.92891 3.28794 5.65863 2.97277C6.38837 2.65759 7.16808 2.5 7.99777 2.5C8.82747 2.5 9.60752 2.65744 10.3379 2.97232C11.0683 3.28721 11.7037 3.71455 12.244 4.25435C12.7843 4.79415 13.2121 5.42891 13.5272 6.15863C13.8424 6.88837 14 7.66808 14 8.49777C14 9.32747 13.8426 10.1075 13.5277 10.8379C13.2128 11.5683 12.7855 12.2037 12.2457 12.744C11.7059 13.2843 11.0711 13.7121 10.3414 14.0272C9.61163 14.3424 8.83192 14.5 8.00223 14.5ZM8 13.8333C9.48889 13.8333 10.75 13.3167 11.7833 12.2833C12.8167 11.25 13.3333 9.98889 13.3333 8.5C13.3333 7.01111 12.8167 5.75 11.7833 4.71667C10.75 3.68333 9.48889 3.16667 8 3.16667C6.51111 3.16667 5.25 3.68333 4.21667 4.71667C3.18333 5.75 2.66667 7.01111 2.66667 8.5C2.66667 9.98889 3.18333 11.25 4.21667 12.2833C5.25 13.3167 6.51111 13.8333 8 13.8333Z" fill="#E3E3E3"/>
</g>
</svg>
