<svg width="24" height="25" viewBox="0 0 24 25" fill="none" xmlns="http://www.w3.org/2000/svg">
<mask id="mask0_2412_5437" style="mask-type:alpha" maskUnits="userSpaceOnUse" x="0" y="0" width="24" height="25">
<rect y="0.95752" width="24" height="24" fill="#D9D9D9"/>
</mask>
<g mask="url(#mask0_2412_5437)">
<path d="M9.11538 17.9575C8.65513 17.9575 8.27083 17.8034 7.9625 17.495C7.65417 17.1867 7.5 16.8024 7.5 16.3421V5.57289C7.5 5.11264 7.65417 4.72835 7.9625 4.42002C8.27083 4.11169 8.65513 3.95752 9.11538 3.95752H16.8846C17.3449 3.95752 17.7292 4.11169 18.0375 4.42002C18.3458 4.72835 18.5 5.11264 18.5 5.57289V16.3421C18.5 16.8024 18.3458 17.1867 18.0375 17.495C17.7292 17.8034 17.3449 17.9575 16.8846 17.9575H9.11538ZM9.11538 16.9575H16.8846C17.0385 16.9575 17.1795 16.8934 17.3077 16.7652C17.4359 16.637 17.5 16.496 17.5 16.3421V5.57289C17.5 5.41906 17.4359 5.27804 17.3077 5.14982C17.1795 5.02162 17.0385 4.95752 16.8846 4.95752H9.11538C8.96154 4.95752 8.82052 5.02162 8.6923 5.14982C8.5641 5.27804 8.5 5.41906 8.5 5.57289V16.3421C8.5 16.496 8.5641 16.637 8.6923 16.7652C8.82052 16.8934 8.96154 16.9575 9.11538 16.9575ZM6.11538 20.9575C5.65513 20.9575 5.27083 20.8034 4.9625 20.495C4.65417 20.1867 4.5 19.8024 4.5 19.3421V7.57289H5.5V19.3421C5.5 19.496 5.5641 19.637 5.6923 19.7652C5.8205 19.8934 5.96153 19.9575 6.11538 19.9575H14.8846V20.9575H6.11538Z" fill="#E3E3E3"/>
</g>
</svg>
