<svg width="16" height="16" viewBox="0 0 16 16" fill="none" xmlns="http://www.w3.org/2000/svg">
<mask id="mask0_1998_9960" style="mask-type:alpha" maskUnits="userSpaceOnUse" x="0" y="0" width="16" height="16">
<rect width="16" height="16" fill="#D9D9D9"/>
</mask>
<g mask="url(#mask0_1998_9960)">
<path d="M8.01867 11.4872C8.16606 11.4872 8.29039 11.4363 8.39167 11.3345C8.49295 11.2328 8.54358 11.1082 8.54358 10.9608C8.54358 10.8134 8.49271 10.6891 8.39095 10.5878C8.28918 10.4865 8.16461 10.4359 8.01723 10.4359C7.86984 10.4359 7.74551 10.4868 7.64423 10.5886C7.54294 10.6903 7.4923 10.8149 7.4923 10.9623C7.4923 11.1096 7.54318 11.234 7.64495 11.3353C7.74672 11.4365 7.87129 11.4872 8.01867 11.4872ZM7.67435 9.27948H8.31795C8.33504 8.98974 8.38953 8.75427 8.48142 8.57308C8.57329 8.39188 8.76239 8.16068 9.04872 7.87948C9.34615 7.58205 9.56752 7.3156 9.71282 7.08013C9.85812 6.84466 9.93077 6.57211 9.93077 6.26248C9.93077 5.73706 9.74616 5.31837 9.37695 5.0064C9.00773 4.69443 8.57097 4.53845 8.06667 4.53845C7.58718 4.53845 7.18013 4.66879 6.84552 4.92948C6.51089 5.19017 6.26581 5.48974 6.11025 5.8282L6.72308 6.08205C6.82992 5.83932 6.98269 5.62479 7.18142 5.43847C7.38013 5.25213 7.66667 5.15897 8.04103 5.15897C8.47351 5.15897 8.78932 5.27756 8.98847 5.51475C9.18761 5.75193 9.28718 6.01282 9.28718 6.29743C9.28718 6.5282 9.22479 6.73439 9.1 6.91602C8.97521 7.09765 8.81282 7.28034 8.61282 7.4641C8.22649 7.82051 7.97351 8.12265 7.85385 8.37052C7.73418 8.61837 7.67435 8.92136 7.67435 9.27948ZM8.00223 14C7.17253 14 6.39248 13.8426 5.66207 13.5277C4.93166 13.2128 4.29629 12.7855 3.75598 12.2457C3.21568 11.7059 2.78794 11.0711 2.47277 10.3414C2.15759 9.61163 2 8.83192 2 8.00223C2 7.17253 2.15744 6.39248 2.47232 5.66207C2.78721 4.93166 3.21455 4.29629 3.75435 3.75598C4.29415 3.21568 4.92891 2.78794 5.65863 2.47277C6.38837 2.15759 7.16808 2 7.99777 2C8.82747 2 9.60752 2.15744 10.3379 2.47232C11.0683 2.78721 11.7037 3.21455 12.244 3.75435C12.7843 4.29415 13.2121 4.92891 13.5272 5.65863C13.8424 6.38837 14 7.16808 14 7.99777C14 8.82747 13.8426 9.60752 13.5277 10.3379C13.2128 11.0683 12.7855 11.7037 12.2457 12.244C11.7059 12.7843 11.0711 13.2121 10.3414 13.5272C9.61163 13.8424 8.83192 14 8.00223 14ZM8 13.3333C9.48889 13.3333 10.75 12.8167 11.7833 11.7833C12.8167 10.75 13.3333 9.48889 13.3333 8C13.3333 6.51111 12.8167 5.25 11.7833 4.21667C10.75 3.18333 9.48889 2.66667 8 2.66667C6.51111 2.66667 5.25 3.18333 4.21667 4.21667C3.18333 5.25 2.66667 6.51111 2.66667 8C2.66667 9.48889 3.18333 10.75 4.21667 11.7833C5.25 12.8167 6.51111 13.3333 8 13.3333Z" fill="#E3E3E3"/>
</g>
</svg>
